<?xml version="1.0" encoding="UTF-8" standalone="no"?>
<svg width="204px" height="57px" viewBox="0 0 204 57" version="1.1" xmlns="http://www.w3.org/2000/svg" xmlns:xlink="http://www.w3.org/1999/xlink">
    <!-- Generator: Sketch 44.1 (41455) - http://www.bohemiancoding.com/sketch -->
    <title>Logo-Echopen</title>
    <desc>Created with Sketch.</desc>
    <defs></defs>
    <g id="Mockups-test" stroke="none" stroke-width="1" fill="none" fill-rule="evenodd">
        <g id="Connection" transform="translate(-78.000000, -43.000000)">
            <g id="Logo-Echopen" transform="translate(78.000000, 43.000000)">
                <g id="Shape">
                    <path d="M115.67,19 C116.783747,17.2761104 118.207881,15.7739885 119.87,14.57 C126.237136,9.93335494 134.972261,10.3493133 140.87,15.57 C141.964233,16.5592603 142.934631,17.6774009 143.76,18.9 C143.846905,19.292552 144.025048,19.6591158 144.28,19.97 C145.578515,22.2256174 146.296666,24.7683517 146.37,27.37 C146.37,28.07 146.37,28.76 146.49,29.45 C146.477097,29.8979572 146.587812,30.3408157 146.81,30.73 C146.977132,31.3490363 147.208383,31.9489495 147.5,32.52 C149.706719,37.6065817 155.248274,40.3731417 160.64,39.08 C164.802663,38.1844651 168.074636,34.9670252 169.04,30.82 C169.116543,30.8028667 169.173179,30.73814 169.18,30.66 C169.330524,30.0299802 169.420929,29.3870992 169.45,28.74 C169.459743,27.7373256 169.523167,26.735892 169.64,25.74 C169.935204,23.6248851 170.638208,21.5871921 171.71,19.74 C171.88,19.44 172.16,19.18 172.17,18.8 C172.5,18.35 172.81,17.88 173.17,17.46 C176.91,13.26 181.54,11 187.17,11.38 C192.704981,11.6694964 197.722619,14.7251817 200.52,19.51 C201.921061,21.6573061 202.772722,24.1161323 203,26.67 C203.01396,26.7269614 203.037641,26.7810882 203.07,26.83 L203.07,28 L197.62,28 C197.683829,21.9693785 193.020132,16.9419038 187.001696,16.5534459 C180.98326,16.1649881 175.71196,20.5512119 175,26.54 C174.84,27.73 174.94,28.92 174.76,30.11 C174.304436,33.365074 172.915032,36.4182904 170.76,38.9 C168.026432,42.186679 164.105228,44.2604963 159.85,44.67 C155.496723,45.155318 151.126839,43.9129351 147.68,41.21 C146.258393,40.1141586 145.010919,38.8093681 143.98,37.34 C143.942932,37.0953369 143.843009,36.8644799 143.69,36.67 C142.398027,34.6042356 141.591142,32.2724742 141.33,29.85 C141.363555,29.4251369 141.302066,28.9981337 141.15,28.6 C141.184762,27.9319916 141.154621,27.2621862 141.06,26.6 C140.409668,21.5459233 136.457104,17.5524001 131.41,16.85 C126.694762,16.1666408 122.049671,18.477235 119.75,22.65 C118.724958,24.4772219 118.239486,26.5578149 118.35,28.65 C118.27,28.72 118.29,28.82 118.28,28.91 C118.207738,29.8621501 118.067379,30.8079026 117.86,31.74 C117.086847,34.9920547 115.34304,37.9321132 112.86,40.17 C112.784029,40.2475282 112.741023,40.3514586 112.74,40.46 C110.479845,42.4859645 107.716865,43.8674546 104.74,44.46 C95.8560355,46.1292424 87.2074773,40.5957424 85,31.83 C84.7728381,30.7532643 84.635698,29.659488 84.59,28.56 C84.1590968,24.6723924 81.7551433,21.2812846 78.2294517,19.58757 C74.70376,17.8938554 70.5541034,18.1366602 67.25,20.23 C63.9826861,22.170773 61.9485543,25.6605567 61.87,29.46 C61.7306671,31.8845437 60.995638,34.2373239 59.73,36.31 C57.0034406,41.2002065 51.9692321,44.3602565 46.38,44.69 C39.91,45.17 34.77,42.6 30.99,37.33 L30.93,37.26 C30.9090731,37.0610462 30.8289547,36.872942 30.7,36.72 C29.1038527,34.1523577 28.2490028,31.1932619 28.23,28.17 C28.2373605,27.5677789 28.1972362,26.9659146 28.11,26.37 C28.112201,26.0141737 28.0077052,25.6658544 27.81,25.37 C27.81,25.24 27.75,25.1 27.71,24.97 C25.9881542,19.0158628 19.8147464,15.5377613 13.83,17.15 C9.7497604,18.0924293 6.57254905,21.2929739 5.66,25.38 L0.21,25.38 C0.357362038,24.3561022 0.612099049,23.3505613 0.97,22.38 C3.16441129,16.452595 8.49827109,12.2571032 14.7757909,11.5206815 C21.0533107,10.7842599 27.2133472,13.6313921 30.72,18.89 C30.7225897,19.0272859 30.7604716,19.1615943 30.83,19.28 C31.3346586,20.0358972 31.7634073,20.839801 32.11,21.68 C32.814416,23.3237474 33.2337443,25.0754575 33.35,26.86 C33.35,27 33.28,27.18 33.49,27.25 C33.4584335,28.3495027 33.5456048,29.4492016 33.75,30.53 C35.0689575,36.3131424 40.5958318,40.1237311 46.47,39.3 C51.0390834,38.819192 54.8600234,35.6152983 56.13,31.2 C56.4426645,30.1626009 56.5944276,29.0833964 56.58,28 C56.7347994,27.6217734 56.8195115,27.218544 56.83,26.81 C57.4831929,23.3696288 59.2007226,20.2214073 61.74,17.81 C61.86,17.7 62.02,17.6 62.02,17.4 C63.3798553,16.1370285 64.9501981,15.1217207 66.66,14.4 C73.7491482,11.3437523 82.0089538,13.5284709 86.66,19.69 C86.66,19.86 86.75,19.97 86.84,20.1 C88.1398651,21.9206981 89.0675933,23.9800508 89.57,26.16 C89.6230968,26.7471463 89.7507918,27.3251341 89.95,27.88 C89.95,28.39 89.95,28.88 90.05,29.41 C90.4411079,32.2768541 91.9198575,34.8834636 94.18,36.69 C96.9169737,38.9714952 100.553146,39.8633213 104.035159,39.1071266 C107.517172,38.3509318 110.45589,36.0312255 112,32.82 C112.770339,31.0865593 113.113281,29.1935168 113,27.3 C113.13,27.3 113.15,27.16 113.14,27.04 C113.134652,26.4248119 113.198385,25.8109679 113.33,25.21 C113.623189,23.4801756 114.201017,21.8108958 115.04,20.27 C115.338723,19.8967935 115.553591,19.4636457 115.67,19 Z" fill="#306DE9" fill-rule="nonzero"></path>
                    <path d="M0,26.26 C0.2,25.97 0,25.6 0.21,25.32 L27.8,25.32 C27.9977052,25.6158544 28.102201,25.9641737 28.1,26.32 C28.1872362,26.9159146 28.2273605,27.5177789 28.22,28.12 C28.2390028,31.1432619 29.0938527,34.1023577 30.69,36.67 C30.8189547,36.822942 30.8990731,37.0110462 30.92,37.21 C30.59,37.36 30.48,37.7 30.28,37.96 C25.5921954,44.2461032 17.204517,46.4960525 10,43.4 C7.89531766,42.4980753 6.00678464,41.1583759 4.46,39.47 C2.32926843,37.2192219 0.879951179,34.4107363 0.28,31.37 L0,29.9 L0,26.26 Z M16.76,30.73 C13.24,30.73 9.76,30.73 6.19,30.73 C5.74,30.73 5.7,30.84 5.82,31.24 C6.48847919,33.418045 7.77781073,35.3537799 9.53,36.81 C11.4271067,38.3559726 13.7662342,39.2594081 16.21,39.39 C17.5660295,39.4793249 18.9261991,39.295702 20.21,38.85 C22.3007443,38.2028886 24.1545582,36.9542597 25.54,35.26 C26.5103513,34.0778569 27.2437305,32.7197473 27.7,31.26 C27.83,30.85 27.7,30.77 27.32,30.77 C23.78,30.74 20.27,30.74 16.76,30.74 L16.76,30.73 Z" fill="#2BBEF9" fill-rule="nonzero"></path>
                    <path d="M30.73,18.83 C30.95,18.93 30.99,18.71 31.06,18.61 C33.1631358,15.5447046 36.2224968,13.2624916 39.76,12.12 C41.9535234,11.4169282 44.2659773,11.1618781 46.56,11.37 C49.8345477,11.664574 52.9470126,12.9283601 55.5,15 C55.84,15.26 56.15,15.55 56.5,15.88 L56.5,0 L61.9,0 C61.9,5.63333333 61.9,11.2633333 61.9,16.89 C61.9,17.07 61.82,17.26 61.98,17.42 C61.98,17.62 61.82,17.71 61.7,17.83 C59.1607226,20.2414073 57.4431929,23.3896288 56.79,26.83 C56.7898785,27.2293623 56.7187725,27.6255238 56.58,28 C56.5381362,27.8190565 56.5381362,27.6309435 56.58,27.45 C56.58,23.8966667 56.58,20.3433333 56.58,16.79 C56.6076717,16.5877364 56.5727755,16.3818488 56.48,16.2 C56.3821103,16.3496609 56.2752481,16.493257 56.16,16.63 L53.22,19.63 C53.08,19.78 52.97,19.93 52.74,19.7 C51.8677792,18.8591319 50.8516555,18.181716 49.74,17.7 C47.7321147,16.748574 45.4782069,16.4445586 43.29,16.83 C40.6641786,17.2329931 38.2620874,18.5419382 36.5,20.53 C35.2216643,21.9730762 34.3153729,23.7067017 33.86,25.58 C33.8024368,26.1105574 33.7021105,26.6355981 33.56,27.15 C33.35,27.08 33.42,26.9 33.42,26.76 C33.3037443,24.9754575 32.884416,23.2237474 32.18,21.58 C31.8334073,20.739801 31.4046586,19.9358972 30.9,19.18 C30.8153925,19.0791019 30.7569988,18.9588794 30.73,18.83 Z" fill="#2BBEF9" fill-rule="nonzero"></path>
                    <path d="M197.59,28 L203,28 L203,41.26 L198,41.26 C197.74,41.26 197.57,41.26 197.57,40.9 C197.57,36.69 197.57,32.49 197.57,28.28 C197.569071,28.186279 197.57576,28.0926375 197.59,28 L197.59,28 Z" fill="#2BBEF9" fill-rule="nonzero"></path>
                    <path d="M141.17,28.59 C141.322066,28.9881337 141.383555,29.4151369 141.35,29.84 C141.611142,32.2624742 142.418027,34.5942356 143.71,36.66 C143.863009,36.8544799 143.962932,37.0853369 144,37.33 C143.83,37.24 143.78,37.33 143.69,37.48 C143.000363,38.4667949 142.216699,39.384419 141.35,40.22 C135.784946,45.4500546 127.393676,46.2715202 120.92,42.22 C120.005512,41.6650693 119.145078,41.0256031 118.35,40.31 C118.280142,40.4632926 118.259193,40.6343811 118.29,40.8 C118.29,46 118.29,51.1966667 118.29,56.39 C118.29,56.84 118.19,56.96 117.73,56.96 C116.27,56.96 114.81,56.96 113.36,56.96 C112.97,56.96 112.87,56.85 112.87,56.47 C112.87,51.3166667 112.87,46.1666667 112.87,41.02 C112.87,40.83 112.95,40.61 112.77,40.45 C112.771023,40.3414586 112.814029,40.2375282 112.89,40.16 C115.37304,37.9221132 117.116847,34.9820547 117.89,31.73 C118.097379,30.7979026 118.237738,29.8521501 118.31,28.9 C118.31,28.81 118.31,28.71 118.38,28.64 C118.57,28.89 118.45,29.18 118.5,29.45 C118.742015,31.3916686 119.52126,33.2272238 120.75,34.75 C121.16,35.21 121.51,35.75 121.96,36.15 C122.931717,37.0768276 124.054507,37.8309909 125.28,38.38 C127.208196,39.2641969 129.352492,39.5665531 131.45,39.25 C133.347097,38.9710487 135.140928,38.2101337 136.66,37.04 C138.644602,35.5408123 140.084455,33.4337103 140.76,31.04 C140.952305,30.2336239 141.08929,29.4150511 141.17,28.59 Z" fill="#2BBEF9" fill-rule="nonzero"></path>
                    <path d="M172.21,18.82 C172.21,19.2 171.92,19.46 171.75,19.76 C170.678208,21.6071921 169.975204,23.6448851 169.68,25.76 C169.563167,26.755892 169.499743,27.7573256 169.49,28.76 C169.460929,29.4070992 169.370524,30.0499802 169.22,30.68 C169.213179,30.75814 169.156543,30.8228667 169.08,30.84 C168.91,30.66 168.7,30.74 168.51,30.74 L146.85,30.74 C146.627812,30.3508157 146.517097,29.9079572 146.53,29.46 C146.45,28.77 146.43,28.07 146.41,27.38 C146.336666,24.7783517 145.618515,22.2356174 144.32,19.98 C144.065048,19.6691158 143.886905,19.302552 143.8,18.91 C144.34,18.36 144.72,17.69 145.24,17.12 C145.941095,16.3344923 146.721959,15.6240061 147.57,15 C148.4723,14.3057393 149.432486,13.6901499 150.44,13.16 C152.210219,12.2622172 154.127341,11.6897902 156.1,11.47 C159.484494,11.059487 162.913694,11.6909064 165.93,13.28 C167.109647,13.9115874 168.210601,14.680241 169.21,15.57 C170.206564,16.4610661 171.09287,17.4682321 171.85,18.57 C171.94,18.69 172,18.82 172.21,18.82 Z M146.89,25.33 L168.52,25.33 C169.07,25.33 169.08,25.33 168.91,24.81 C168.221777,22.5651447 166.856025,20.5881228 165,19.15 C162.470201,17.127408 159.177587,16.3225468 156,16.95 C152.936937,17.4734935 150.2322,19.2536885 148.54,21.86 C147.822057,22.9290646 147.26605,24.0983636 146.89,25.33 L146.89,25.33 Z" fill="#2BBEF9" fill-rule="nonzero"></path>
                    <path d="M115.67,19 C115.55658,19.4628173 115.345153,19.8959027 115.05,20.27 C114.211017,21.8108958 113.633189,23.4801756 113.34,25.21 C113.208385,25.8109679 113.144652,26.4248119 113.15,27.04 C113.15,27.15 113.15,27.26 113.01,27.3 C112.958808,27.1396125 112.918713,26.9758924 112.89,26.81 C112.61966,24.2934082 111.493563,21.9459027 109.7,20.16 C108.745926,19.193002 107.624462,18.406961 106.39,17.84 C104.34206,16.8230436 102.026947,16.4733287 99.77,16.84 C96.8332395,17.3141708 94.1815751,18.8737635 92.34,21.21 C91.2930549,22.5083806 90.5698321,24.0370884 90.23,25.67 C90.07,26.41 90.02,27.15 89.92,27.9 C89.7207918,27.3451341 89.5930968,26.7671463 89.54,26.18 C89.0375933,24.0000508 88.1098651,21.9406981 86.81,20.12 C86.72,19.99 86.61,19.88 86.63,19.71 C86.86,19.71 86.9,19.47 86.99,19.33 C90.4772832,13.7382368 96.8733196,10.6550591 103.42,11.41 C105.567587,11.6158344 107.650322,12.2590322 109.54,13.3 C110.573442,13.8692974 111.548167,14.5392117 112.45,15.3 C113.684676,16.3830794 114.767757,17.6276133 115.67,19 L115.67,19 Z" fill="#2BBEF9" fill-rule="nonzero"></path>
                </g>
            </g>
        </g>
    </g>
</svg>