<?xml version="1.0" encoding="UTF-8"?>
<svg width="16px" height="16px" viewBox="0 0 16 16" version="1.1" xmlns="http://www.w3.org/2000/svg" xmlns:xlink="http://www.w3.org/1999/xlink">
    <!-- Generator: Sketch 45.1 (43504) - http://www.bohemiancoding.com/sketch -->
    <title>Group</title>
    <desc>Created with Sketch.</desc>
    <defs></defs>
    <g id="Page-1" stroke="none" stroke-width="1" fill="none" fill-rule="evenodd">
        <g id="Gabarit-page-profile" transform="translate(-531.000000, -1330.000000)" fill="#306DE9">
            <g id="Repo-Copy" transform="translate(474.000000, 1044.000000)">
                <g id="calendar-copy-3" transform="translate(57.000000, 286.000000)">
                    <g id="Group">
                        <path d="M16,2 C16,1.632 15.7013333,1.33333333 15.3333333,1.33333333 L13.3333333,1.33333333 L13.3333333,0.666666667 C13.3333333,0.298666667 13.0346667,0 12.6666667,0 L10,0 C9.632,0 9.33333333,0.298666667 9.33333333,0.666666667 L9.33333333,1.33333333 L6.66666667,1.33333333 L6.66666667,0.666666667 C6.66666667,0.298666667 6.368,0 6,0 L3.33333333,0 C2.96533333,0 2.66666667,0.298666667 2.66666667,0.666666667 L2.66666667,1.33333333 L0.666666667,1.33333333 C0.298666667,1.33333333 0,1.632 0,2 L0,4.66666667 L16,4.66666667 L16,2 L16,2 Z M5.33333333,3.33333333 L4,3.33333333 L4,1.33333333 L5.33333333,1.33333333 L5.33333333,3.33333333 L5.33333333,3.33333333 Z M12,3.33333333 L10.6666667,3.33333333 L10.6666667,1.33333333 L12,1.33333333 L12,3.33333333 L12,3.33333333 Z" id="Shape"></path>
                        <path d="M0,6 L0,15.3333333 C0,15.7013333 0.298666667,16 0.666666667,16 L15.3333333,16 C15.7013333,16 16,15.7013333 16,15.3333333 L16,6 L0,6 L0,6 Z M5.33333333,13.3333333 L2.66666667,13.3333333 L2.66666667,11.3333333 L5.33333333,11.3333333 L5.33333333,13.3333333 L5.33333333,13.3333333 Z M5.33333333,10 L2.66666667,10 L2.66666667,8 L5.33333333,8 L5.33333333,10 L5.33333333,10 Z M9.33333333,13.3333333 L6.66666667,13.3333333 L6.66666667,11.3333333 L9.33333333,11.3333333 L9.33333333,13.3333333 L9.33333333,13.3333333 Z M9.33333333,10 L6.66666667,10 L6.66666667,8 L9.33333333,8 L9.33333333,10 L9.33333333,10 Z M13.3333333,13.3333333 L10.6666667,13.3333333 L10.6666667,11.3333333 L13.3333333,11.3333333 L13.3333333,13.3333333 L13.3333333,13.3333333 Z M13.3333333,10 L10.6666667,10 L10.6666667,8 L13.3333333,8 L13.3333333,10 L13.3333333,10 Z" id="Shape"></path>
                    </g>
                </g>
            </g>
        </g>
    </g>
</svg>