<?xml version="1.0" encoding="UTF-8"?>
<svg width="15px" height="28px" viewBox="0 0 15 28" version="1.1" xmlns="http://www.w3.org/2000/svg" xmlns:xlink="http://www.w3.org/1999/xlink">
    <!-- Generator: Sketch 45.1 (43504) - http://www.bohemiancoding.com/sketch -->
    <title>Capa_1</title>
    <desc>Created with Sketch.</desc>
    <defs></defs>
    <g id="Page-1" stroke="none" stroke-width="1" fill="none" fill-rule="evenodd">
        <g id="Gabarit-page-profile" transform="translate(-491.000000, -2141.000000)" fill="#306DE9">
            <g id="pin" transform="translate(491.000000, 2141.000000)">
                <g id="Capa_1">
                    <path d="M14.1791768,6.97336562 C14.1791768,3.12825182 11.0509249,0 7.20581114,0 C3.36069734,0 0.232445521,3.12825182 0.232445521,6.97336562 C0.232445521,10.6618111 3.11244552,13.6822082 6.7409201,13.9230218 L6.7409201,26.9636804 C6.7409201,27.2207651 6.94919128,27.4285714 7.20581114,27.4285714 C7.46243099,27.4285714 7.67070218,27.2207651 7.67070218,26.9636804 L7.67070218,13.9230218 C11.2991768,13.6822082 14.1791768,10.6618111 14.1791768,6.97336562 L14.1791768,6.97336562 Z M4.88135593,6.97336562 C3.8558063,6.97336562 3.02179177,6.13935109 3.02179177,5.11380145 C3.02179177,4.08825182 3.8558063,3.25423729 4.88135593,3.25423729 C5.90690557,3.25423729 6.7409201,4.08825182 6.7409201,5.11380145 C6.7409201,6.13935109 5.90690557,6.97336562 4.88135593,6.97336562 L4.88135593,6.97336562 Z" id="Shape"></path>
                </g>
            </g>
        </g>
    </g>
</svg>